<svg width="128" height="128" viewBox="0 0 128 128" fill="none" xmlns="http://www.w3.org/2000/svg">
<rect width="128" height="128" rx="64" fill="#B91C1C"/>
<path d="M22.856 51.044H26.78V53.132C26.78 59.504 23.792 65.228 17.42 67.352L14.972 63.572C20.516 61.736 22.856 57.38 22.856 53.132V51.044ZM23.828 51.044H27.716V53.132C27.716 57.092 29.984 61.16 35.384 62.888L32.828 66.524C26.744 64.508 23.828 59.144 23.828 53.132V51.044ZM16.34 49.316H34.232V53.132H16.34V49.316ZM36.896 46.868H41.684V71.276H36.896V46.868ZM40.316 56.552H46.112V60.476H40.316V56.552ZM20.192 75.812H42.872V79.628H20.192V75.812ZM20.192 68.9H24.98V77.828H20.192V68.9ZM52.0852 61.736H75.5212V65.552H52.0852V61.736ZM48.5932 72.536H78.7612V76.46H48.5932V72.536ZM61.2292 63.464H66.0172V73.796H61.2292V63.464ZM52.0852 49.136H75.2692V52.988H56.8732V63.392H52.0852V49.136ZM103.058 46.832H107.81V80.276H103.058V46.832ZM106.73 59.432H112.634V63.392H106.73V59.432ZM83.0424 68.612H85.8504C91.5024 68.612 95.8944 68.432 100.79 67.568L101.258 71.42C96.2184 72.32 91.6464 72.536 85.8504 72.536H83.0424V68.612ZM83.0064 49.676H98.3424V62.6H87.7944V70.088H83.0424V58.784H93.5904V53.492H83.0064V49.676Z" fill="white"/>
</svg>
