<svg width="128" height="128" viewBox="0 0 128 128" fill="none" xmlns="http://www.w3.org/2000/svg">
<rect width="128" height="128" rx="64" fill="#B91C1C"/>
<path d="M22.856 38.544H26.78V40.632C26.78 47.004 23.792 52.728 17.42 54.852L14.972 51.072C20.516 49.236 22.856 44.88 22.856 40.632V38.544ZM23.828 38.544H27.716V40.632C27.716 44.592 29.984 48.66 35.384 50.388L32.828 54.024C26.744 52.008 23.828 46.644 23.828 40.632V38.544ZM16.34 36.816H34.232V40.632H16.34V36.816ZM36.896 34.368H41.684V58.776H36.896V34.368ZM40.316 44.052H46.112V47.976H40.316V44.052ZM20.192 63.312H42.872V67.128H20.192V63.312ZM20.192 56.4H24.98V65.328H20.192V56.4ZM52.0852 49.236H75.5212V53.052H52.0852V49.236ZM48.5932 60.036H78.7612V63.96H48.5932V60.036ZM61.2292 50.964H66.0172V61.296H61.2292V50.964ZM52.0852 36.636H75.2692V40.488H56.8732V50.892H52.0852V36.636ZM103.058 34.332H107.81V67.776H103.058V34.332ZM106.73 46.932H112.634V50.892H106.73V46.932ZM83.0424 56.112H85.8504C91.5024 56.112 95.8944 55.932 100.79 55.068L101.258 58.92C96.2184 59.82 91.6464 60.036 85.8504 60.036H83.0424V56.112ZM83.0064 37.176H98.3424V50.1H87.7944V57.588H83.0424V46.284H93.5904V40.992H83.0064V37.176Z" fill="white"/>
<rect width="110" height="1" transform="translate(9 71.5)" fill="white"/>
<path d="M33.8182 78.8636L36.1648 82.8295H36.2557L38.6136 78.8636H41.392L37.8409 84.6818L41.4716 90.5H38.642L36.2557 86.5284H36.1648L33.7784 90.5H30.9602L34.6023 84.6818L31.0284 78.8636H33.8182ZM45.392 90.6648C44.8352 90.6648 44.339 90.5682 43.9034 90.375C43.4678 90.178 43.1231 89.8883 42.8693 89.5057C42.6193 89.1193 42.4943 88.6383 42.4943 88.0625C42.4943 87.5777 42.5833 87.1705 42.7614 86.8409C42.9394 86.5114 43.1818 86.2462 43.4886 86.0455C43.7955 85.8447 44.1439 85.6932 44.5341 85.5909C44.928 85.4886 45.3409 85.4167 45.7727 85.375C46.2803 85.322 46.6894 85.2727 47 85.2273C47.3106 85.178 47.536 85.1061 47.6761 85.0114C47.8163 84.9167 47.8864 84.7765 47.8864 84.5909V84.5568C47.8864 84.197 47.7727 83.9186 47.5455 83.7216C47.322 83.5246 47.0038 83.4261 46.5909 83.4261C46.1553 83.4261 45.8087 83.5227 45.5511 83.7159C45.2936 83.9053 45.1231 84.1439 45.0398 84.4318L42.8011 84.25C42.9148 83.7197 43.1383 83.2614 43.4716 82.875C43.8049 82.4848 44.2348 82.1856 44.7614 81.9773C45.2917 81.7652 45.9053 81.6591 46.6023 81.6591C47.0871 81.6591 47.5511 81.7159 47.9943 81.8295C48.4413 81.9432 48.8371 82.1193 49.1818 82.358C49.5303 82.5966 49.8049 82.9034 50.0057 83.2784C50.2064 83.6496 50.3068 84.0947 50.3068 84.6136V90.5H48.0114V89.2898H47.9432C47.803 89.5625 47.6155 89.803 47.3807 90.0114C47.1458 90.2159 46.8636 90.3769 46.5341 90.4943C46.2045 90.608 45.8239 90.6648 45.392 90.6648ZM46.0852 88.9943C46.4413 88.9943 46.7557 88.9242 47.0284 88.7841C47.3011 88.6402 47.5152 88.447 47.6705 88.2045C47.8258 87.9621 47.9034 87.6875 47.9034 87.3807V86.4545C47.8277 86.5038 47.7235 86.5492 47.5909 86.5909C47.4621 86.6288 47.3163 86.6648 47.1534 86.6989C46.9905 86.7292 46.8277 86.7576 46.6648 86.7841C46.5019 86.8068 46.3542 86.8277 46.2216 86.8466C45.9375 86.8883 45.6894 86.9545 45.4773 87.0455C45.2652 87.1364 45.1004 87.2595 44.983 87.4148C44.8655 87.5663 44.8068 87.7557 44.8068 87.983C44.8068 88.3125 44.9261 88.5644 45.1648 88.7386C45.4072 88.9091 45.714 88.9943 46.0852 88.9943ZM54.6051 85.4545V90.5H52.1847V81.7727H54.4915V83.3125H54.5938C54.7869 82.8049 55.1108 82.4034 55.5653 82.108C56.0199 81.8087 56.571 81.6591 57.2188 81.6591C57.8248 81.6591 58.3532 81.7917 58.804 82.0568C59.2547 82.322 59.6051 82.7008 59.8551 83.1932C60.1051 83.6818 60.2301 84.2652 60.2301 84.9432V90.5H57.8097V85.375C57.8134 84.8409 57.6771 84.4242 57.4006 84.125C57.1241 83.822 56.7434 83.6705 56.2585 83.6705C55.9328 83.6705 55.6449 83.7405 55.3949 83.8807C55.1487 84.0208 54.9555 84.2254 54.8153 84.4943C54.679 84.7595 54.6089 85.0795 54.6051 85.4545ZM65.3537 90.642C64.6908 90.642 64.0904 90.4716 63.5526 90.1307C63.0185 89.786 62.5942 89.2803 62.2798 88.6136C61.9692 87.9432 61.8139 87.1212 61.8139 86.1477C61.8139 85.1477 61.9749 84.3163 62.2969 83.6534C62.6188 82.9867 63.0469 82.4886 63.581 82.1591C64.1188 81.8258 64.7079 81.6591 65.348 81.6591C65.8366 81.6591 66.2438 81.7424 66.5696 81.9091C66.8991 82.072 67.1643 82.2765 67.3651 82.5227C67.5696 82.7652 67.7249 83.0038 67.831 83.2386H67.9048V78.8636H70.3196V90.5H67.9332V89.1023H67.831C67.7173 89.3447 67.5563 89.5852 67.348 89.8239C67.1435 90.0587 66.8764 90.2538 66.5469 90.4091C66.2211 90.5644 65.8234 90.642 65.3537 90.642ZM66.1207 88.7159C66.5109 88.7159 66.8404 88.6098 67.1094 88.3977C67.3821 88.1818 67.5904 87.8807 67.7344 87.4943C67.8821 87.108 67.956 86.6553 67.956 86.1364C67.956 85.6174 67.884 85.1667 67.7401 84.7841C67.5961 84.4015 67.3878 84.1061 67.1151 83.8977C66.8423 83.6894 66.5109 83.5852 66.1207 83.5852C65.723 83.5852 65.3878 83.6932 65.1151 83.9091C64.8423 84.125 64.6359 84.4242 64.4957 84.8068C64.3556 85.1894 64.2855 85.6326 64.2855 86.1364C64.2855 86.6439 64.3556 87.0928 64.4957 87.483C64.6397 87.8693 64.8461 88.1723 65.1151 88.392C65.3878 88.608 65.723 88.7159 66.1207 88.7159ZM76.2528 90.6705C75.3703 90.6705 74.607 90.483 73.9631 90.108C73.3229 89.7292 72.8286 89.2027 72.4801 88.5284C72.1316 87.8504 71.9574 87.0644 71.9574 86.1705C71.9574 85.2689 72.1316 84.4811 72.4801 83.8068C72.8286 83.1288 73.3229 82.6023 73.9631 82.2273C74.607 81.8485 75.3703 81.6591 76.2528 81.6591C77.1354 81.6591 77.8968 81.8485 78.5369 82.2273C79.1809 82.6023 79.6771 83.1288 80.0256 83.8068C80.3741 84.4811 80.5483 85.2689 80.5483 86.1705C80.5483 87.0644 80.3741 87.8504 80.0256 88.5284C79.6771 89.2027 79.1809 89.7292 78.5369 90.108C77.8968 90.483 77.1354 90.6705 76.2528 90.6705ZM76.2642 88.7955C76.6657 88.7955 77.0009 88.6818 77.2699 88.4545C77.5388 88.2235 77.7415 87.9091 77.8778 87.5114C78.018 87.1136 78.0881 86.661 78.0881 86.1534C78.0881 85.6458 78.018 85.1932 77.8778 84.7955C77.7415 84.3977 77.5388 84.0833 77.2699 83.8523C77.0009 83.6212 76.6657 83.5057 76.2642 83.5057C75.8589 83.5057 75.518 83.6212 75.2415 83.8523C74.9688 84.0833 74.7623 84.3977 74.6222 84.7955C74.4858 85.1932 74.4176 85.6458 74.4176 86.1534C74.4176 86.661 74.4858 87.1136 74.6222 87.5114C74.7623 87.9091 74.9688 88.2235 75.2415 88.4545C75.518 88.6818 75.8589 88.7955 76.2642 88.7955ZM82.1222 90.5V81.7727H84.4688V83.2955H84.5597C84.7188 82.7538 84.9858 82.3447 85.3608 82.0682C85.7358 81.7879 86.1676 81.6477 86.6562 81.6477C86.7775 81.6477 86.9081 81.6553 87.0483 81.6705C87.1884 81.6856 87.3116 81.7064 87.4176 81.733V83.8807C87.304 83.8466 87.1468 83.8163 86.946 83.7898C86.7453 83.7633 86.5616 83.75 86.3949 83.75C86.0388 83.75 85.7206 83.8277 85.4403 83.983C85.1638 84.1345 84.9441 84.3466 84.7812 84.6193C84.6222 84.892 84.5426 85.2064 84.5426 85.5625V90.5H82.1222ZM90.9077 90.6648C90.3509 90.6648 89.8546 90.5682 89.419 90.375C88.9834 90.178 88.6387 89.8883 88.3849 89.5057C88.1349 89.1193 88.0099 88.6383 88.0099 88.0625C88.0099 87.5777 88.099 87.1705 88.277 86.8409C88.455 86.5114 88.6974 86.2462 89.0043 86.0455C89.3111 85.8447 89.6596 85.6932 90.0497 85.5909C90.4437 85.4886 90.8565 85.4167 91.2884 85.375C91.7959 85.322 92.205 85.2727 92.5156 85.2273C92.8262 85.178 93.0516 85.1061 93.1918 85.0114C93.3319 84.9167 93.402 84.7765 93.402 84.5909V84.5568C93.402 84.197 93.2884 83.9186 93.0611 83.7216C92.8376 83.5246 92.5194 83.4261 92.1065 83.4261C91.6709 83.4261 91.3243 83.5227 91.0668 83.7159C90.8092 83.9053 90.6387 84.1439 90.5554 84.4318L88.3168 84.25C88.4304 83.7197 88.6539 83.2614 88.9872 82.875C89.3205 82.4848 89.7505 82.1856 90.277 81.9773C90.8073 81.7652 91.4209 81.6591 92.1179 81.6591C92.6027 81.6591 93.0668 81.7159 93.5099 81.8295C93.9569 81.9432 94.3527 82.1193 94.6974 82.358C95.0459 82.5966 95.3205 82.9034 95.5213 83.2784C95.7221 83.6496 95.8224 84.0947 95.8224 84.6136V90.5H93.527V89.2898H93.4588C93.3187 89.5625 93.1312 89.803 92.8963 90.0114C92.6615 90.2159 92.3793 90.3769 92.0497 90.4943C91.7202 90.608 91.3395 90.6648 90.9077 90.6648ZM91.6009 88.9943C91.9569 88.9943 92.2713 88.9242 92.544 88.7841C92.8168 88.6402 93.0308 88.447 93.1861 88.2045C93.3414 87.9621 93.419 87.6875 93.419 87.3807V86.4545C93.3433 86.5038 93.2391 86.5492 93.1065 86.5909C92.9777 86.6288 92.8319 86.6648 92.669 86.6989C92.5062 86.7292 92.3433 86.7576 92.1804 86.7841C92.0175 86.8068 91.8698 86.8277 91.7372 86.8466C91.4531 86.8883 91.205 86.9545 90.9929 87.0455C90.7808 87.1364 90.616 87.2595 90.4986 87.4148C90.3812 87.5663 90.3224 87.7557 90.3224 87.983C90.3224 88.3125 90.4418 88.5644 90.6804 88.7386C90.9228 88.9091 91.2296 88.9943 91.6009 88.9943Z" fill="white"/>
</svg>
